HIERARCHY
ROOT Hips
{
	OFFSET -3.958830 18.904000 13.208200
	CHANNELS 6 Xposition Yposition Zposition Zrotation Yrotation Xrotation 
	JOINT LHipJoint
	{
		OFFSET 0.000000 0.000000 0.000000
		CHANNELS 3 Zrotation Yrotation Xrotation
		JOINT LeftUpLeg
		{
			OFFSET 1.800000 -1.400000 0.085000
			CHANNELS 3 Zrotation Yrotation Xrotation
			JOINT LeftLeg
			{
				OFFSET 2.215000 -6.000000 0.000000
				CHANNELS 3 Zrotation Yrotation Xrotation
				JOINT LeftFoot
				{
					OFFSET 2.500000 -6.900000 0.000000
					CHANNELS 3 Zrotation Yrotation Xrotation
					JOINT LeftToeBase
					{
						OFFSET 0.200000 -0.500000 1.950000
						CHANNELS 3 Zrotation Yrotation Xrotation
						End Site
						{
							OFFSET 0.000000 0.000000 0.000000
						}
					}
				}
			}
		}
	}
	JOINT RHipJoint
	{
		OFFSET 0.000000 0.000000 0.000000
		CHANNELS 3 Zrotation Yrotation Xrotation
		JOINT RightUpLeg
		{
			OFFSET -1.800000 -1.400000 0.085000
			CHANNELS 3 Zrotation Yrotation Xrotation
			JOINT RightLeg
			{
				OFFSET -2.215000 -6.000000 0.000000
				CHANNELS 3 Zrotation Yrotation Xrotation
				JOINT RightFoot
				{
					OFFSET -2.500000 -6.900000 0.000000
					CHANNELS 3 Zrotation Yrotation Xrotation
					JOINT RightToeBase
					{
						OFFSET -0.200000 -0.500000 1.950000
						CHANNELS 3 Zrotation Yrotation Xrotation
						End Site
						{
							OFFSET 0.000000 0.000000 0.000000
						}
					}
				}
			}
		}
	}
	JOINT LowerBack
	{
		OFFSET 0.000000 0.000000 0.000000
		CHANNELS 3 Zrotation Yrotation Xrotation
		JOINT Spine
		{
			OFFSET -0.087000 1.940000 -0.288900
			CHANNELS 3 Zrotation Yrotation Xrotation
			JOINT Spine1
			{
				OFFSET 0.000000 1.950000 0.060000
				CHANNELS 3 Zrotation Yrotation Xrotation
				JOINT Neck
				{
					OFFSET 0.000000 0.000000 0.000000
					CHANNELS 3 Zrotation Yrotation Xrotation
					JOINT Neck1
					{
						OFFSET 0.000000 1.600000 0.340000
						CHANNELS 3 Zrotation Yrotation Xrotation
						JOINT Head
						{
							OFFSET 0.000000 1.667000 -0.240000
							CHANNELS 3 Zrotation Yrotation Xrotation
							End Site
							{
								OFFSET 0.000000 0.000000 0.000000
							}
						}
					}
				}
				JOINT LeftShoulder
				{
					OFFSET 0.000000 0.000000 0.000000
					CHANNELS 3 Zrotation Yrotation Xrotation
					JOINT LeftArm
					{
						OFFSET 2.700000 1.550000 -0.730000
						CHANNELS 3 Zrotation Yrotation Xrotation
						JOINT LeftForeArm
						{
							OFFSET 5.450000 0.000000 0.000000
							CHANNELS 3 Zrotation Yrotation Xrotation
							JOINT LeftHand
							{
								OFFSET 3.450000 0.000000 0.000000
								CHANNELS 3 Zrotation Yrotation Xrotation
								JOINT LeftHandIndex1
								{
									OFFSET 0.750000 0.000000 0.000000
									CHANNELS 3 Zrotation Yrotation Xrotation
									End Site
									{
										OFFSET 0.000000 0.000000 0.000000
									}
								}
							}
						}
					}
				}
				JOINT RightShoulder
				{
					OFFSET 0.000000 0.000000 0.000000
					CHANNELS 3 Zrotation Yrotation Xrotation
					JOINT RightArm
					{
						OFFSET -2.700000 1.550000 -0.730000
						CHANNELS 3 Zrotation Yrotation Xrotation
						JOINT RightForeArm
						{
							OFFSET -5.450000 0.000000 0.000000
							CHANNELS 3 Zrotation Yrotation Xrotation
							JOINT RightHand
							{
								OFFSET -3.450000 0.000000 0.000000
								CHANNELS 3 Zrotation Yrotation Xrotation
								JOINT RightHandIndex1
								{
									OFFSET -0.750000 0.000000 0.000000
									CHANNELS 3 Zrotation Yrotation Xrotation
									End Site
									{
										OFFSET 0.000000 0.000000 0.000000
									}
								}
							}
						}
					}
				}
			}
		}
	}
}
MOTION
Frames: 14
Frame Time: 0.016667
0.185580 16.538500 0.057650 -10.409181 -43.887216 -13.547478 -15.573498 16.406674 3.949567 20.309772 -5.819271 9.706519 -11.150789 11.073936 23.436296 -0.657136 9.126618 1.471667 -0.033740 -0.511440 0.238780 17.751393 -9.360758 1.217732 0.989572 -7.097337 -10.272793 -20.324620 -2.854425 27.899338 -0.749220 -4.119666 2.996803 -0.069980 0.286490 0.063040 -0.274846 -10.152441 -9.158620 -7.241267 -8.635320 33.318037 2.580719 -11.038196 24.791162 0.432126 -2.721118 -25.332203 -24.632001 17.074725 43.453297 -13.541240 10.841170 -42.221950 -14.581970 -39.070750 20.942640 -17.387684 -44.539723 -26.158150 -26.798098 -67.889922 1.068472 -0.902587 3.360011 1.727390 -0.138920 0.284410 -0.046530 12.823385 31.505012 12.418377 62.112318 -1.101919 -17.334942 -41.976547 -1.047077 1.355466 2.059006 -0.889808 -1.011060 0.947710 0.545320 -0.602500 
0.141280 16.519160 0.046960 -9.647342 -43.523487 -14.658040 -15.544897 16.292004 3.928406 20.125242 -6.249218 10.377544 -11.612751 11.301613 24.258258 -0.525796 9.185031 1.441628 -0.022740 -0.474310 0.193410 17.791949 -9.466615 1.146691 1.265911 -7.708161 -10.471818 -21.713404 -2.729395 29.332080 -0.837853 -4.402987 2.917003 -0.098200 0.242540 0.067130 -0.425319 -9.867254 -8.941743 -7.868946 -8.698153 34.445695 2.852715 -11.377211 23.584357 0.943188 -2.640078 -26.032288 -25.571863 18.176893 45.192537 -13.014220 11.447350 -41.929390 -14.834513 -39.285605 20.737791 -15.106986 -42.191020 -28.235103 -41.021919 -67.362928 8.225565 1.151392 4.887697 1.710850 -0.177730 0.311010 -0.024250 12.576637 31.939263 12.710622 62.106550 -1.982195 -16.987053 -40.227253 -3.288595 2.461851 2.127469 -0.899345 -0.943250 0.885510 0.516280 -0.568860 
0.098700 16.499880 0.042420 -8.685580 -43.540752 -15.506363 -15.549381 16.246925 3.897326 19.675042 -6.305826 11.021785 -11.863135 11.509170 24.869151 -0.441677 9.241935 1.436526 0.013450 -0.398750 0.181760 17.813519 -9.490296 1.078433 1.252984 -7.822118 -10.891128 -22.366814 -2.488257 30.719570 -0.881751 -4.621015 2.857031 -0.066050 0.236180 0.053230 -0.429225 -9.841189 -8.810212 -8.665119 -8.661429 34.496773 2.975603 -11.388268 23.258442 0.516639 -2.792730 -25.455428 -25.818219 18.052348 44.485802 -12.442400 11.378160 -40.933960 -14.363909 -39.216695 18.866679 -13.964817 -39.718199 -28.158753 -48.914698 -67.334400 12.740068 2.534400 6.036865 1.662190 -0.176170 0.313400 0.013070 12.993181 31.681332 12.944074 61.595519 -2.922503 -18.208438 -42.707802 0.105540 0.749937 2.099791 -0.980575 -0.910900 0.872000 0.464020 -0.534340 
0.056680 16.485880 0.023270 -7.630524 -43.129546 -16.652164 -15.594526 16.230255 3.855239 19.288355 -6.336853 11.694021 -12.005539 11.647344 25.204975 -0.375255 9.312461 1.429580 0.011100 -0.390080 0.153110 17.809771 -9.446593 1.002851 1.016269 -7.755144 -10.850223 -22.139815 -2.484107 31.756477 -0.899407 -4.730337 2.833729 -0.073150 0.244620 0.050180 -0.330166 -10.022261 -8.648005 -10.237465 -8.402224 35.052551 4.047324 -11.270835 21.876611 0.079928 -3.477142 -24.247680 -27.144337 18.462084 43.540448 -12.036400 11.268480 -41.171880 -13.876094 -38.601189 15.683263 -14.008810 -36.719205 -25.211594 -53.146266 -69.221162 15.822854 2.421001 6.336725 1.645000 -0.182410 0.309470 0.029920 13.639936 31.838742 13.936248 60.034494 -4.172481 -18.173162 -42.518777 1.404433 0.163558 2.096234 -0.976909 -0.894950 0.869670 0.457470 -0.511070 
0.016580 16.466200 0.000850 -6.993976 -42.848622 -17.052049 -15.616363 16.166435 3.807711 19.203149 -6.555202 11.695827 -12.216785 11.935452 26.321306 -0.338326 9.460682 1.393819 -0.002810 -0.391580 0.128170 17.815216 -9.426660 0.998808 1.273460 -7.389892 -11.464030 -21.782547 -2.415886 33.025788 -0.890619 -4.866124 2.792033 -0.065060 0.287730 0.053640 -0.322873 -10.019849 -8.528888 -11.021336 -8.107692 34.759378 4.567487 -10.998428 21.586363 -0.720378 -3.999265 -22.886646 -26.128195 17.786375 41.776678 -11.744700 11.556480 -39.933180 -12.508309 -38.141848 13.293326 -13.316861 -33.593400 -22.227973 -49.058327 -74.072381 12.925691 0.409880 5.173843 1.596580 -0.140020 0.274410 0.040460 13.795133 32.109409 14.608447 57.820663 -3.964713 -16.736501 -40.194369 0.083940 0.657889 2.107369 -0.977527 -0.897810 0.866080 0.458380 -0.495840 
-0.003430 16.456310 -0.021470 -6.480120 -43.033068 -17.674216 -15.603913 16.076900 3.748349 18.984648 -6.249188 12.086914 -12.238895 12.121029 26.801801 -0.319987 9.556630 1.388317 -0.046500 -0.438480 0.096990 17.848471 -9.437922 1.038741 1.202443 -6.722020 -11.461867 -21.119787 -2.340190 33.695947 -0.861479 -4.913943 2.789460 -0.077850 0.335280 0.036150 -0.394106 -9.841914 -8.431176 -10.704513 -7.484244 35.236877 4.614390 -10.219234 21.413116 -1.121329 -4.507888 -21.969630 -25.683586 17.086384 40.563322 -11.802090 11.251120 -39.099220 -11.696512 -38.152644 11.512718 -11.111221 -30.404062 -18.802974 -27.679026 -79.111515 2.022067 -1.814656 3.643359 1.573890 -0.110820 0.234180 0.037040 13.688582 32.784934 15.452791 56.078243 -4.127536 -17.156222 -41.221963 2.165787 -0.559499 2.065609 -0.978819 -0.927900 0.894240 0.483450 -0.490060 
-0.051910 16.442380 -0.030230 -5.263070 -40.592866 -18.520426 -15.649454 16.161482 3.629671 18.397054 -5.735718 11.433389 -10.530171 11.653946 27.640717 -0.397277 9.429038 1.460004 -0.093430 -0.509590 0.058030 17.796199 -9.520059 1.008566 -0.303678 -6.356491 -10.473278 -19.266348 -2.801336 33.533544 -0.794697 -4.845418 2.837429 -0.095450 0.406110 0.026040 -0.399347 -9.795745 -8.338889 -11.820404 -7.008022 34.794375 5.297160 -9.849147 21.556884 -1.446104 -4.538966 -21.750186 -24.107514 16.647277 40.598093 -11.073830 11.585370 -37.509700 -10.803049 -38.249425 10.578238 -9.012043 -27.194732 -17.393326 4.286559 -80.700534 -14.537669 -2.967619 2.553037 1.579060 -0.068570 0.181780 0.046040 13.351948 33.349874 15.991887 52.637235 -3.627196 -16.378683 -40.679771 1.354793 -0.603572 2.045192 -0.977189 -0.984960 0.919770 0.512630 -0.497130 
-0.092440 16.424950 -0.057840 -5.076417 -39.319044 -17.943399 -15.624310 16.082640 3.535822 18.644551 -5.237961 10.112408 -9.782452 11.434123 27.785106 -0.442398 9.302698 1.528692 -0.116980 -0.538180 0.031760 17.800844 -9.609856 1.131198 -0.230091 -5.458473 -10.889966 -18.152929 -2.828108 34.031181 -0.741646 -4.865725 2.843606 -0.089050 0.489110 0.025550 -0.616966 -9.374016 -8.221915 -10.812091 -6.840743 34.125369 5.601058 -9.277207 21.568842 -2.121359 -5.050220 -21.256925 -22.934982 15.849194 38.606177 -9.704790 11.610280 -34.882410 -10.842039 -37.345777 9.718322 -7.028490 -25.040861 -16.575859 35.045876 -77.455448 -29.204060 -3.815071 1.747318 1.512800 -0.004030 0.116620 0.060690 14.763184 33.057188 16.247581 46.894960 -3.211525 -14.236319 -38.299084 -0.737800 -0.023565 2.068599 -0.985909 -1.004300 0.935950 0.522460 -0.479400 
-0.132460 16.423110 -0.074390 -4.758800 -37.348104 -17.901929 -15.544749 15.997291 3.428713 18.609993 -4.713514 9.237818 -8.446479 10.980042 28.219216 -0.520357 9.094993 1.592803 -0.084830 -0.485570 0.006790 17.831901 -9.851850 1.224605 -1.099759 -4.886654 -10.649578 -16.288981 -3.232298 34.047715 -0.712424 -4.848108 2.837748 -0.043830 0.521270 0.041190 -0.971506 -8.758288 -8.040901 -9.130851 -6.853342 33.905978 4.674951 -8.722946 21.438659 -2.770808 -5.463615 -20.285987 -22.665775 14.967484 37.272860 -8.304350 10.718590 -33.756460 -10.274164 -35.427301 8.865982 -5.213409 -24.732029 -15.001504 44.897442 -67.133828 -29.864513 -4.442781 1.930340 1.472990 0.025430 0.091900 0.086390 15.494382 31.463121 15.584419 43.794188 -3.022578 -14.832213 -40.703922 2.944815 -1.972898 1.992330 -1.065951 -0.991430 0.931310 0.516950 -0.456000 
-0.173790 16.417660 -0.100170 -4.177869 -35.342491 -18.015347 -15.471740 15.865453 3.362652 18.719870 -4.402380 8.029438 -8.008560 10.837657 28.788447 -0.633929 9.094760 1.595312 -0.116600 -0.561950 0.015530 17.861119 -10.063972 1.324262 -1.976954 -4.117767 -10.508237 -14.369538 -3.644049 34.080246 -0.660774 -4.824530 2.831083 -0.044810 0.586990 0.064550 -1.283367 -8.151013 -7.908539 -7.601485 -6.342759 33.877317 3.943292 -7.754419 20.253047 -3.452646 -5.452684 -18.527001 -21.176839 13.432034 36.521137 -8.224570 9.652720 -33.186070 -10.310402 -34.293209 6.371076 -2.443717 -24.354477 -13.618605 41.165133 -57.195578 -23.741529 -4.648468 2.089514 1.477020 0.077630 0.047370 0.065540 16.817511 30.417095 15.416432 41.318244 -2.784644 -15.295350 -43.115764 4.872993 -3.223670 1.918006 -1.063708 -1.042250 0.971250 0.572510 -0.479960 
-0.228090 16.414530 -0.088840 -3.939222 -31.764209 -17.575362 -15.461692 15.904448 3.222856 18.605884 -3.812704 6.323928 -5.962096 10.004860 28.943627 -0.824320 8.859943 1.662045 -0.146900 -0.624030 0.016700 17.828141 -10.218926 1.402624 -3.156386 -3.507566 -10.017872 -11.793469 -4.402440 33.923698 -0.611267 -4.828245 2.796068 -0.033210 0.662210 0.125870 -1.437998 -7.866852 -7.769265 -6.391358 -6.296655 32.845650 3.182760 -7.370027 19.425841 -3.695166 -4.803813 -16.467227 -18.455193 12.555544 36.566570 -8.929160 9.598230 -32.081280 -10.803924 -33.022837 4.211653 -0.688007 -24.575921 -12.614843 35.506141 -47.472632 -17.681056 -4.613615 2.107307 1.468920 0.161430 0.009510 0.039280 17.600516 28.931959 14.604533 36.722849 -0.838508 -14.800867 -44.448088 4.388744 -3.529455 1.860744 -1.067251 -1.079510 0.991420 0.644920 -0.503770 
-0.283440 16.424430 -0.081950 -4.198608 -28.860334 -16.716679 -15.314154 15.723751 3.055058 18.743401 -3.114937 4.755543 -4.247785 9.264418 28.772334 -0.990554 8.550146 1.744879 -0.149290 -0.618970 -0.027170 17.915601 -10.520101 1.624798 -3.630352 -2.593937 -9.561236 -9.378080 -4.900053 33.056473 -0.562869 -4.780509 2.792811 0.009600 0.726670 0.150480 -1.965895 -6.957778 -7.548567 -2.781445 -7.044669 31.805457 1.455039 -7.230439 17.247231 -3.862061 -5.683613 -14.278357 -19.377107 11.847886 36.601909 -7.577960 7.884110 -30.796420 -11.730011 -29.597748 2.741597 -0.558789 -25.050073 -10.621952 31.976003 -37.443998 -13.287436 -4.417536 2.025760 1.438000 0.209430 -0.028710 0.035200 19.186363 26.534228 13.179045 31.046140 1.889745 -14.082192 -45.006862 5.523737 -4.258378 1.790703 -1.034203 -1.089950 1.029280 0.700920 -0.485790 
-0.334600 16.424150 -0.075710 -4.015581 -26.640443 -16.056086 -15.173192 15.557482 2.880848 18.373234 -2.177028 3.758995 -2.465938 8.495750 27.899655 -1.106171 8.156655 1.905226 -0.189910 -0.673440 -0.094980 18.009112 -10.808602 1.823742 -4.338745 -1.619797 -9.413501 -7.184459 -5.186672 31.973627 -0.489105 -4.694245 2.839654 0.005540 0.797860 0.120010 -2.431197 -6.062960 -7.376875 0.250570 -7.231289 31.417947 -0.023562 -6.692933 14.372914 -3.411045 -6.914917 -13.048671 -20.938888 11.585844 36.113949 -5.697990 6.332370 -29.183620 -12.380441 -24.888719 2.956192 -1.129334 -22.655385 -8.484006 30.824085 -32.652104 -11.401758 -4.282799 1.928389 1.425710 0.226420 -0.090140 0.046640 19.330792 23.752247 11.402558 27.119553 3.179076 -14.162731 -45.225783 11.570093 -6.593641 1.682704 -0.946780 -1.134310 1.075300 0.739600 -0.464940 
-0.381880 16.437630 -0.066710 -4.481959 -24.670538 -15.494532 -15.073793 15.432173 2.783828 19.052671 -1.348664 3.224898 -1.422471 8.036673 26.277002 -1.078231 7.767785 2.067830 -0.187660 -0.671520 -0.115920 18.064256 -10.977685 2.034776 -4.427593 -0.726402 -8.461063 -5.094397 -5.404366 30.489155 -0.471941 -4.565473 2.910086 -0.025590 0.796540 0.095780 -2.734792 -5.350014 -7.378416 3.324548 -7.100529 31.794640 -1.061785 -5.836708 11.848303 -2.112644 -7.606426 -13.249417 -22.128330 11.955163 38.038628 -3.530850 5.527470 -27.524170 -14.657211 -22.796742 3.793974 -0.313863 -17.196595 -7.540853 29.431605 -31.102143 -10.041770 -4.156379 1.925077 1.408220 0.188070 -0.085520 0.076980 19.352733 23.495480 10.962923 22.420916 3.093063 -14.614474 -45.619634 16.499437 -8.536028 1.670464 -0.887427 -1.103950 1.065230 0.703570 -0.425440 
